<svg xmlns="http://www.w3.org/2000/svg" viewBox="0 0 100 100" fill="none">
  <!-- Cercle extérieur épais -->
  <circle cx="50" cy="50" r="48" fill="none" stroke="#1e40af" stroke-width="6"/>
  
  <!-- Balance de justice - Fulcrum (pivot central) -->
  <line x1="50" y1="20" x2="50" y2="40" stroke="#D4AF37" stroke-width="4" stroke-linecap="round"/>
  <circle cx="50" cy="20" r="4" fill="#D4AF37"/>
  
  <!-- Barre horizontale de la balance -->
  <line x1="30" y1="40" x2="70" y2="40" stroke="#D4AF37" stroke-width="3"/>
  
  <!-- Pans de la balance (bleus) -->
  <ellipse cx="35" cy="48" rx="10" ry="4" fill="#1e40af" stroke="#1e40af" stroke-width="1"/>
  <ellipse cx="65" cy="48" rx="10" ry="4" fill="#1e40af" stroke="#1e40af" stroke-width="1"/>
  
  <!-- Lignes de suspension des pans -->
  <line x1="35" y1="40" x2="35" y2="48" stroke="#D4AF37" stroke-width="2"/>
  <line x1="65" y1="40" x2="65" y2="48" stroke="#D4AF37" stroke-width="2"/>
  
  <!-- Fond bleu pour les vagues -->
  <rect x="2" y="55" width="96" height="43" fill="#3b82f6" rx="0"/>
  
  <!-- Vagues stylisées (3 lignes) -->
  <path d="M5 65 Q15 60 25 65 T45 65 T65 65 T85 65 T95 65" stroke="#60a5fa" stroke-width="3" fill="none"/>
  <path d="M5 72 Q15 69 25 72 T45 72 T65 72 T85 72 T95 72" stroke="#60a5fa" stroke-width="3" fill="none"/>
  <path d="M5 79 Q15 76 25 79 T45 79 T65 79 T85 79 T95 79" stroke="#60a5fa" stroke-width="3" fill="none"/>
</svg>
